<?xml version="1.0" standalone="no"?>
<!DOCTYPE svg PUBLIC "-//W3C//DTD SVG 1.1//EN" "http://www.w3.org/Graphics/SVG/1.1/DTD/svg11.dtd" >
<svg xmlns="http://www.w3.org/2000/svg">
<metadata></metadata>
<defs>
<font id="din_1451_engschriftregular" horiz-adv-x="1024" >
<font-face units-per-em="2048" ascent="1638" descent="-410" />
<missing-glyph horiz-adv-x="360" />
<glyph horiz-adv-x="2048" />
<glyph horiz-adv-x="2048" />
<glyph unicode="&#xd;" horiz-adv-x="2048" />
<glyph unicode=" "  horiz-adv-x="360" />
<glyph unicode="&#x09;" horiz-adv-x="360" />
<glyph unicode="&#xa0;" horiz-adv-x="360" />
<glyph unicode="!" horiz-adv-x="446" d="M102 1366h242l-74 -1024h-94zM125 0v195h194v-195h-194z" />
<glyph unicode="&#x22;" horiz-adv-x="745" d="M86 1366h227l-37 -547h-153zM434 1366h228l-37 -547h-156z" />
<glyph unicode="#" d="M-86 416l63 159h216l75 193h-215l64 158h215l90 227h174l-90 -227h205l88 227h170l-92 -227h215l-62 -158h-217l-74 -193h211l-61 -159h-213l-96 -228l-166 2l90 226h-203l-88 -226h-176l92 226h-215zM362 575h207l78 193h-205z" />
<glyph unicode="$" d="M162 340v49h196v-49q0 -39 3.5 -58.5t31 -59.5t101.5 -40q41 0 75.5 17.5t51 45t17.5 57.5t1 40v96q0 41 -3 61.5t-24.5 44t-61.5 43t-139.5 56.5t-167 116t-67.5 216v61q0 125 79 222.5t198 115.5v127h94v-127q127 -16 207 -111.5t80 -226.5v-61h-195v61q0 29 -4 49.5 t-33 59.5t-96 39q-59 0 -97 -42t-38 -106v-61q0 -39 3 -56.5t21.5 -40t53 -39t134 -52t175.5 -116.5t76 -220v-111q0 -68 -13.5 -119t-76 -132t-197.5 -97v-131h-94v131q-145 20 -218 123.5t-73 224.5z" />
<glyph unicode="%" horiz-adv-x="1134" d="M74 895v266q0 43 8 69.5t35 55.5q61 78 153 78q90 0 145.5 -59.5t55.5 -143.5v-266q0 -76 -35 -122t-73.5 -67.5t-86.5 -21.5q-59 0 -108 28.5t-67.5 67.5t-22.5 63.5t-4 51.5zM133 -31l750 1405h110l-751 -1405h-109zM205 895q0 -78 69 -78q33 0 48.5 23.5t15.5 54.5 v266q0 31 -17.5 52.5t-48.5 21.5t-49 -22.5t-18 -51.5v-266zM664 193v266q0 43 8 69.5t35 55.5q61 78 153 78q90 0 145.5 -59.5t55.5 -143.5v-266q0 -76 -35 -122t-74 -67.5t-86 -21.5q-59 0 -108 28.5t-67.5 67.5t-22.5 63.5t-4 51.5zM795 193q0 -78 69 -78q33 0 48.5 23.5 t15.5 54.5v266q0 31 -17.5 52t-48.5 21t-49 -22.5t-18 -50.5v-266z" />
<glyph unicode="&#x26;" horiz-adv-x="1005" d="M92 391q0 137 62.5 240.5t183.5 202.5q-55 106 -72.5 170.5t-17.5 123.5q0 115 77.5 186.5t192.5 71.5t191.5 -70.5t76.5 -182.5q0 -98 -54 -178.5t-152 -174.5l127 -280q18 51 26.5 101t16.5 136l2 27h161q0 -123 -25.5 -249t-72.5 -253l121 -264h-221l-33 82 q-49 -45 -106.5 -71.5t-118.5 -26.5q-176 0 -270.5 114.5t-94.5 294.5zM291 397q0 -88 41 -152.5t125 -64.5q43 0 78.5 26.5t58.5 69.5l-162 379q-59 -51 -100 -118.5t-41 -139.5zM438 1133q0 -45 15.5 -87t42.5 -90q51 39 81.5 83t30.5 98q0 37 -25.5 62.5t-62.5 25.5 t-59.5 -27t-22.5 -65z" />
<glyph unicode="'" horiz-adv-x="405" d="M86 1366h233l-36 -547h-160z" />
<glyph unicode="(" horiz-adv-x="538" d="M102 791q0 250 62.5 478t191.5 437h76q-51 -209 -76.5 -443.5t-25.5 -463.5q0 -221 32.5 -475t88.5 -437h-78q-131 197 -201 430.5t-70 473.5z" />
<glyph unicode=")" horiz-adv-x="497" d="M86 1702h78q131 -197 200.5 -430.5t69.5 -472.5q0 -250 -62.5 -478.5t-191.5 -437.5h-76q51 209 77 444t26 464q0 221 -33 475t-88 436z" />
<glyph unicode="*" horiz-adv-x="677" d="M88 1018l131 80l-129 84l72 112l112 -71v143h136v-143l112 71l72 -112l-127 -82l131 -80l-72 -113l-116 70v-139h-136v139l-112 -74z" />
<glyph unicode="+" d="M37 655v107h418v399h110v-399h420v-107h-420v-399h-110v399h-418z" />
<glyph unicode="," horiz-adv-x="391" d="M100 -145v340h195v-195z" />
<glyph unicode="-" horiz-adv-x="792" d="M104 440v195h584v-195h-584z" />
<glyph unicode="." horiz-adv-x="391" d="M98 0v195h195v-195h-195z" />
<glyph unicode="/" horiz-adv-x="649" d="M127 0l264 1366h135l-264 -1366h-135z" />
<glyph unicode="0" horiz-adv-x="720" d="M23 -8l73 172q-6 12 -18 45t-12 88v774q0 57 9 96t38 80q90 131 243 131q57 0 113.5 -22.5t93.5 -61.5l45 111l82 -39l-65 -154q14 -35 19 -63.5t5 -77.5v-770q0 -66 -11 -110t-73.5 -123.5t-204.5 -79.5q-59 0 -112 23.5t-94 66.5l-48 -125zM260 303q0 -35 15.5 -77 t82.5 -42q29 0 53.5 16.5t35 39t10.5 53.5v510l-197 -471v-29zM260 563l197 475v47q0 39 -30 69t-73 30t-68.5 -32t-25.5 -81v-508z" />
<glyph unicode="1" horiz-adv-x="720" d="M119 1016v207l194 143h195v-1366h-195v1161z" />
<glyph unicode="2" horiz-adv-x="720" d="M74 975v98q0 80 60.5 192.5t242.5 112.5q115 0 198.5 -88t83.5 -203v-124q0 -43 -11 -84t-34 -84l-307 -600h352v-195h-581v180l362 705q25 49 25 100v102q0 41 -28.5 70t-69.5 29q-37 0 -67 -25.5t-30 -64.5v-121h-196z" />
<glyph unicode="3" horiz-adv-x="720" d="M78 313v80h194v-63q0 -25 1 -48.5t21.5 -59.5t74.5 -36q53 0 75.5 36t22.5 91v211q0 51 -24.5 71.5t-48 25t-50.5 4.5h-35v172h35q123 0 123 114v164q0 29 -3 42t-24.5 41t-66.5 28q-51 0 -76 -31t-25 -80v-100h-194v100q0 129 83 216t212 87q72 0 138.5 -36.5t98 -86 t42 -91.5t10.5 -89v-160q0 -133 -117 -202q66 -45 91.5 -91.5t25.5 -123.5v-185v-24q0 -14 -1.5 -31.5t-7.5 -48.5q-29 -98 -108.5 -159.5t-182.5 -61.5q-82 0 -153.5 49t-94 101t-29.5 84t-7 91z" />
<glyph unicode="4" horiz-adv-x="720" d="M39 209v182l283 975h206l-292 -975h192v389h197v-389h94v-182h-94v-209h-197v209h-389z" />
<glyph unicode="5" horiz-adv-x="720" d="M55 307v35h199v-35q0 -20 1 -40.5t21.5 -51.5t71.5 -31q55 0 73.5 30t20.5 47.5t2 37.5v23v266q0 18 -1 38.5t-22.5 51.5t-70.5 31q-72 0 -96 -72h-174v729h559v-182h-385v-367q72 62 160 62q51 0 103 -29t78 -67t35 -79.5t9 -89.5v-307q0 -45 -3 -75.5t-23.5 -86 t-99.5 -106.5t-169 -51q-70 0 -132 33.5t-97 83t-47.5 99.5t-12.5 103z" />
<glyph unicode="6" horiz-adv-x="720" d="M61 303v215q0 45 2.5 64.5t14.5 52.5l270 731h221l-221 -573q41 14 88 14h19q111 -15 166 -109q16 -27 21 -57.5t5 -75.5v-262q0 -51 -9 -93t-61.5 -126t-201.5 -96q-92 0 -166 40t-103.5 96t-37 94t-7.5 85zM258 303q0 -45 24.5 -84t84.5 -33q53 0 69.5 36t16.5 81v215 q0 27 -3.5 44.5t-15.5 33.5q-31 41 -82 41q-27 0 -50 -16.5t-33.5 -39t-10.5 -63.5v-215z" />
<glyph unicode="7" horiz-adv-x="720" d="M76 1024v342h583v-178l-319 -1188h-207l332 1184h-217v-160h-172z" />
<glyph unicode="8" horiz-adv-x="720" d="M63 303v240q0 55 26 99t73 79q-98 74 -99 203v184q0 39 15.5 79t74 115.5t207.5 75.5q57 0 108.5 -23.5t115 -90t63.5 -179.5v-176q0 -119 -98 -188q98 -68 98 -193v-247q0 -61 -30.5 -129t-100.5 -116t-151 -48q-88 0 -162 45t-100.5 101t-33 93t-6.5 76zM256 303 q0 -53 24.5 -86t79.5 -33q53 0 73 35t20 84v240q0 45 -26 74.5t-71 29.5t-72.5 -29.5t-27.5 -74.5v-240zM256 909q0 -47 25.5 -80.5t72.5 -33.5q51 0 75 31.5t24 82.5v176q0 39 -28 69t-69 30q-43 0 -71.5 -29t-28.5 -70v-176z" />
<glyph unicode="9" horiz-adv-x="720" d="M63 821v279q0 41 15.5 80t72 118.5t201.5 79.5q137 0 216 -93t79 -212v-223q0 -78 -33 -160l-258 -690h-221l227 575q-53 -12 -81 -12q-63 0 -117.5 36t-79.5 91q-14 29 -17.5 54.5t-3.5 76.5zM260 850q0 -51 26.5 -84t78.5 -33q45 0 66.5 32t21.5 85v223q0 51 -22 82 t-73 31q-49 0 -73.5 -33t-24.5 -80v-223z" />
<glyph unicode=":" horiz-adv-x="673" d="M240 176v195h194v-195h-194zM240 608v195h194v-195h-194z" />
<glyph unicode=";" horiz-adv-x="675" d="M240 342v195h194v-195h-194zM242 -145v340h192v-195z" />
<glyph unicode="&#x3c;" d="M68 598v180l886 434v-211l-661 -315l661 -315v-209z" />
<glyph unicode="=" d="M37 510v104h948v-104h-948zM37 805v104h948v-104h-948z" />
<glyph unicode="&#x3e;" d="M70 162v211l661 315l-661 316v208l886 -436v-180z" />
<glyph unicode="?" horiz-adv-x="765" d="M92 975v94q0 131 85 220t216 89q113 0 197 -86t84 -200v-117q0 -100 -47 -184l-121 -211q-27 -51 -27 -129v-109h-196v109q0 80 11 130t50 111l102 168q33 51 33 125v107q0 41 -28.5 65.5t-71.5 24.5q-49 0 -70.5 -31t-21.5 -82v-94h-195zM283 0v195h196v-195h-196z" />
<glyph unicode="@" horiz-adv-x="1646" d="M92 647q0 154 58.5 293t163 246.5t242.5 168t294 60.5q145 0 268 -37t223.5 -122t156.5 -199.5t56 -241.5q0 -227 -108.5 -349t-209.5 -179.5t-189 -57.5q-53 0 -79 36t-36 54q-29 -41 -68 -65.5t-88 -24.5q-45 0 -90 27t-61.5 57.5t-20.5 56t-4 52.5v477q0 72 50 126 t122 54q51 0 92 -24.5t68 -67.5v82h164v-610q0 -35 32 -35q72 0 169.5 120t97.5 277q0 195 -119 285t-212 124t-185 34q-129 0 -241 -46.5t-201 -132.5t-137 -198.5t-48 -239.5t50 -242.5t138 -197.5t205 -125t234 -43q109 0 203 27.5t161.5 73.5t98 81t71.5 92h137 q-43 -96 -88 -161.5t-129 -128t-203.5 -100.5t-244.5 -38q-152 0 -292 48.5t-255 151.5t-180.5 250.5t-65.5 311.5zM766 504q0 -51 17.5 -80t64.5 -29q51 0 65.5 27t16.5 46t2 36v317q0 39 -22.5 65.5t-63.5 26.5q-37 0 -58.5 -27.5t-21.5 -64.5v-317z" />
<glyph unicode="A" horiz-adv-x="776" d="M2 0l305 1366h170l305 -1366h-209l-55 293h-254l-55 -293h-207zM299 475h184l-92 498z" />
<glyph unicode="B" horiz-adv-x="825" d="M106 0v1366h322q59 0 118.5 -26.5t125 -92t65.5 -203.5v-104q0 -156 -123 -221q123 -72 123 -227v-160q0 -143 -92 -237.5t-237 -94.5h-302zM299 195h113q59 0 96 39t37 98v160q0 66 -36 103.5t-99 37.5h-111v-438zM299 805h117q68 0 98.5 42t30.5 114v83q0 63 -37 100.5 t-98 37.5h-111v-377z" />
<glyph unicode="C" horiz-adv-x="788" d="M94 344v705q0 57 11.5 102t48 98.5t103.5 91t140 37.5q141 0 234.5 -93t93.5 -236v-74h-193v74q0 57 -31.5 95t-92.5 38q-57 0 -89 -38t-32 -95v-705q0 -27 1 -53.5t27.5 -67.5t94.5 -41q72 0 93 36t25 53.5t4 47.5v25v45h193v-45q0 -66 -7 -112t-41 -101t-106.5 -99 t-148.5 -44q-90 0 -165 39t-109.5 98t-44 109.5t-9.5 109.5z" />
<glyph unicode="D" horiz-adv-x="829" d="M106 0v1366h310q131 0 226 -93t95 -224v-711q0 -147 -91 -242.5t-236 -95.5h-304zM299 182h96q150 0 150 156v711q0 57 -42 95t-102 38h-102v-1000z" />
<glyph unicode="E" horiz-adv-x="763" d="M106 0v1366h584v-180h-391v-404h344v-184h-344v-401h391v-197h-584z" />
<glyph unicode="F" horiz-adv-x="753" d="M106 0v1366h582v-184h-389v-410h342v-182h-342v-590h-193z" />
<glyph unicode="G" horiz-adv-x="835" d="M92 348v684q0 55 11.5 101.5t75 145.5t247.5 99q82 0 153.5 -39t108.5 -95t48.5 -105t11.5 -107v-57h-193v57q0 35 -3 54.5t-30.5 58.5t-97.5 39q-80 0 -105.5 -42t-29.5 -62.5t-4 -47.5v-684q0 -39 3 -58.5t30.5 -62.5t103.5 -43q82 0 103.5 43t25.5 63.5t4 57.5v240 h-158v170h351v-410q0 -86 -10.5 -124t-37.5 -81q-45 -74 -118.5 -114.5t-161.5 -40.5q-78 0 -149.5 36.5t-111.5 91t-53.5 109t-13.5 123.5z" />
<glyph unicode="H" horiz-adv-x="847" d="M106 0v1366h193v-584h250v584h192v-1366h-192v610h-250v-610h-193z" />
<glyph unicode="I" horiz-adv-x="407" d="M106 0v1366h193v-1366h-193z" />
<glyph unicode="J" horiz-adv-x="669" d="M-10 115l151 121q49 -49 111 -50q86 0 107.5 45t23.5 63.5t2 43.5v45v983h193v-1010q0 -96 -11.5 -134t-42.5 -85q-45 -68 -116.5 -108.5t-151.5 -40.5q-76 0 -144.5 33.5t-121.5 93.5z" />
<glyph unicode="K" horiz-adv-x="866" d="M111 0v1366h194v-629l293 629h193l-267 -545l314 -821h-207l-219 610l-109 -202v-408h-192z" />
<glyph unicode="L" horiz-adv-x="731" d="M109 0v1366h194v-1169h387v-197h-581z" />
<glyph unicode="M" horiz-adv-x="1089" d="M106 0v1366h183l260 -727l254 727h180v-1366h-195v831l-194 -583h-98l-195 583v-831h-195z" />
<glyph unicode="N" horiz-adv-x="894" d="M106 0v1366h185l303 -827v827h194v-1366h-182l-305 829v-829h-195z" />
<glyph unicode="O" horiz-adv-x="841" d="M92 338v696q0 61 13.5 108.5t46.5 94.5q47 66 118.5 103.5t149.5 37.5q76 0 142.5 -30.5t110.5 -84t60.5 -108.5t16.5 -121v-696q0 -61 -11.5 -107.5t-48.5 -103.5t-108.5 -98t-155.5 -41q-96 0 -177 49t-113 111.5t-38 100.5t-6 89zM287 338q0 -20 3 -45t32.5 -67 t101.5 -42q37 0 66.5 17.5t43 40t17.5 43t4 53.5v696q0 41 -3.5 57t-21.5 39q-41 55 -106 56q-35 0 -68.5 -19.5t-47 -43t-17.5 -48t-4 -41.5v-696z" />
<glyph unicode="P" horiz-adv-x="772" d="M106 0v1366h320q59 0 118.5 -24.5t99.5 -64.5t67.5 -95.5t27.5 -106.5v-198q0 -76 -20.5 -135.5t-70.5 -109.5t-108.5 -71.5t-136.5 -21.5h-102v-539h-195zM301 723h102q41 0 66.5 7t50.5 32q18 18 23.5 38.5t5.5 51.5v25v178q0 57 -35 94t-94 37h-119v-463z" />
<glyph unicode="Q" horiz-adv-x="835" d="M92 348v680q0 147 93.5 248.5t240.5 101.5q133 0 230.5 -95t97.5 -228v-707q0 -59 -5.5 -88t-17.5 -55l129 -109l-108 -131l-121 98q-87 -73 -214 -73h-3q-68 0 -133.5 32.5t-110.5 83.5q-47 51 -62.5 107.5t-15.5 134.5zM287 348q0 -37 5 -62.5t24.5 -50t45 -39 t64.5 -14.5q23 0 49 13l-90 73l109 131l65 -51v680q0 66 -37 111t-102 45q-41 0 -72 -20.5t-44 -48.5t-15 -43t-2 -44v-680z" />
<glyph unicode="R" horiz-adv-x="843" d="M104 0v1366h342q135 0 227.5 -94t92.5 -230v-127q0 -188 -160 -288l207 -627h-207l-184 586h-123v-586h-195zM299 758h137q62 0 103 43q18 23 25 51.5t7 62.5v127q0 63 -34.5 102.5t-98.5 39.5h-139v-426z" />
<glyph unicode="S" horiz-adv-x="792" d="M53 340v49h197v-49q0 -39 3 -58.5t30.5 -59.5t101.5 -40q41 0 76 17.5t51 45t17 57.5t1 40v96q0 41 -3 61.5t-24.5 44t-61.5 43t-139 56.5t-166.5 116t-67.5 216v61q0 139 93 240.5t232 101.5q141 0 236.5 -99t95.5 -243v-61h-195v61q0 29 -4 49.5t-32.5 59.5t-96.5 39 q-59 0 -97 -42t-38 -106v-61q0 -39 3 -56.5t21.5 -40t53.5 -39t134 -52t175 -116.5t76 -220v-111q0 -68 -13.5 -119t-83 -142t-239.5 -91q-176 0 -256 115.5t-80 236.5z" />
<glyph unicode="T" horiz-adv-x="720" d="M33 1184v182h657v-182h-233v-1184h-195v1184h-229z" />
<glyph unicode="U" horiz-adv-x="845" d="M106 322v1044h195v-1044q0 -27 4 -46.5t32 -56.5t91 -37q59 0 89 43t30 97v1044h194v-1044q0 -49 -10 -93.5t-35 -85.5q-43 -70 -114.5 -112.5t-155.5 -42.5q-86 0 -163 44t-107.5 100t-40 98t-9.5 92z" />
<glyph unicode="V" horiz-adv-x="755" d="M12 1366h205l158 -948l162 948h206l-284 -1366h-168z" />
<glyph unicode="W" horiz-adv-x="1097" d="M12 1366h209l96 -825l158 825h146l159 -825l99 825h206l-192 -1366h-184l-160 831l-158 -831h-180z" />
<glyph unicode="X" horiz-adv-x="786" d="M18 0l281 721l-254 645h205l147 -401l148 401h205l-256 -645l280 -721h-207l-170 463l-172 -463h-207z" />
<glyph unicode="Y" horiz-adv-x="712" d="M-8 1366h205l157 -535l162 535h205l-270 -778v-588h-195v588z" />
<glyph unicode="Z" horiz-adv-x="706" d="M66 0v176l366 1008h-340v182h559v-158l-366 -1011h366v-197h-585z" />
<glyph unicode="[" horiz-adv-x="577" d="M106 -332v1696h365v-145h-197v-1405h197v-146h-365z" />
<glyph unicode="\" horiz-adv-x="649" d="M123 1366h133l266 -1366h-135z" />
<glyph unicode="]" horiz-adv-x="577" d="M106 -184h197v1403h-197v145h365v-1696h-365v148z" />
<glyph unicode="^" d="M53 750l340 620h238l342 -620h-195l-266 477l-266 -477h-193z" />
<glyph unicode="_" d="M-20 -135h1064v-133h-1064v133z" />
<glyph unicode="`" d="M244 1401h192l213 -279h-125z" />
<glyph unicode="a" horiz-adv-x="739" d="M70 223v111q0 109 54 162t98 72.5t106 19.5h131v84q0 29 -3 47t-25.5 47t-61.5 29q-41 0 -70 -27t-35 -70h-194q0 119 85 204t205 85q119 0 207 -84t88 -205v-698h-196v98q-31 -51 -77 -80.5t-103 -29.5h-2q-128 0 -185 114q-14 25 -18 54.5t-4 66.5zM266 287 q0 -39 28 -71t73 -32q25 0 46 12.5t32.5 34t12.5 55t1 48.5v94h-74q-53 0 -86 -20.5t-33 -71.5v-49z" />
<glyph unicode="b" horiz-adv-x="751" d="M88 0v1366h197v-485q65 106 182 106q121 0 158 -62.5t43 -98t6 -64.5v-535q0 -51 -7.5 -86t-51.5 -94t-150 -59q-57 0 -103.5 29.5t-76.5 80.5v-98h-197zM285 301q0 -47 17 -82t77 -35q43 0 70.5 26t27.5 58v418q0 47 -26.5 78t-71.5 31q-41 0 -67.5 -33t-26.5 -76v-385z " />
<glyph unicode="c" horiz-adv-x="702" d="M72 299v381q0 121 83 214t205 93q127 0 211 -90t84 -217h-194q0 45 -25.5 80t-70.5 35q-27 0 -46.5 -11.5t-35 -35t-15.5 -68.5v-381q0 -53 22.5 -84t76.5 -31q43 0 68.5 32t25.5 77h194v-12q0 -121 -88 -207t-209 -86q-66 0 -130 33.5t-97 81t-46 96.5t-13 100z" />
<glyph unicode="d" horiz-adv-x="749" d="M80 250v526q0 88 59.5 149.5t149.5 61.5q55 0 103 -28.5t77 -75.5v483h197v-1366h-197v100q-29 -49 -76 -80.5t-104 -31.5q-133 0 -168 72.5t-38 104.5t-3 85zM276 313q0 -20 1.5 -40.5t19.5 -53.5t76 -33q59 0 77.5 33t18.5 66v28v351q0 20 -1 42t-13 42q-29 49 -84 49 q-29 0 -52.5 -15.5t-31.5 -37t-9.5 -45t-1.5 -35.5v-351z" />
<glyph unicode="e" horiz-adv-x="722" d="M70 317v371q0 121 87 210t208 89q125 0 207.5 -87t82.5 -212v-270h-389v-146q0 -31 29.5 -58.5t62.5 -27.5q43 0 70 27t33 70h194v-23q0 -45 -19.5 -90t-80.5 -113.5t-193 -68.5q-84 0 -154.5 45t-97 99t-33.5 98t-7 87zM266 578h193v96q0 53 -23 87t-74 34 q-39 0 -67.5 -27t-28.5 -94v-96z" />
<glyph unicode="f" horiz-adv-x="481" d="M33 819v156h96v135q0 115 57.5 170t106.5 70.5t108 15.5h68v-180h-72q-72 0 -71 -76v-135h143v-156h-143v-819h-197v819h-96z" />
<glyph unicode="g" horiz-adv-x="743" d="M70 -104h196q0 -41 26.5 -70t69.5 -29q61 0 91 56q8 20 8 65v182q-29 -49 -78 -80.5t-104 -31.5q-59 0 -109.5 31.5t-72 72.5t-24.5 65.5t-3 75.5v541q0 37 9 67.5t51 89t146 58.5q55 0 102.5 -27.5t82.5 -76.5v90h196v-1057q0 -57 -9 -101t-36 -85q-41 -61 -104.5 -97 t-134.5 -36q-125 0 -214 85t-89 212zM266 307q0 -29 3 -46t23.5 -46t74.5 -29q63 0 77.5 36t14.5 54.5t2 30.5v371q0 29 -3.5 45.5t-15.5 34.5q-31 41 -80 41q-57 0 -74.5 -34t-19.5 -51.5t-2 -35.5v-371z" />
<glyph unicode="h" horiz-adv-x="759" d="M86 0v1366h197v-485q67 106 190 106q53 0 100.5 -28.5t68 -66.5t25.5 -64.5t5 -69.5v-758h-197v684q0 49 -22.5 80t-71.5 31q-43 0 -70.5 -34t-27.5 -77v-684h-197z" />
<glyph unicode="i" horiz-adv-x="368" d="M86 0v975h197v-975h-197zM86 1174v192h197v-192h-197z" />
<glyph unicode="j" horiz-adv-x="370" d="M-29 -203h19q55 0 75.5 33t20.5 90v1055h197v-1071q0 -68 -15.5 -116t-58.5 -95q-37 -41 -91.5 -61.5t-111.5 -20.5h-35v186zM86 1178v188h197v-188h-197z" />
<glyph unicode="k" horiz-adv-x="778" d="M86 0v1366h197v-813l245 422h195l-231 -387l278 -588h-219l-170 416l-98 -146v-270h-197z" />
<glyph unicode="l" horiz-adv-x="413" d="M86 242v1124h197v-1085q0 -49 16 -72t66 -23h14v-186h-43q-47 0 -88 10t-82 42t-60.5 82t-19.5 108z" />
<glyph unicode="m" horiz-adv-x="1148" d="M86 0v975h197v-88q68 100 184 100q55 0 99 -25.5t75 -74.5q39 49 86 74.5t107 25.5q100 0 164.5 -70.5t64.5 -171.5v-745h-197v690q0 47 -23.5 77t-72.5 30q-41 0 -68.5 -32t-27.5 -75v-690h-197v690q0 45 -26.5 76t-71.5 31q-41 0 -68.5 -32t-27.5 -75v-690h-197z" />
<glyph unicode="n" horiz-adv-x="757" d="M84 0v975h197v-94q66 106 182 106q119 0 178 -100q16 -25 22.5 -59.5t6.5 -69.5v-758h-197v686q0 109 -96 109q-43 0 -69.5 -33t-26.5 -76v-686h-197z" />
<glyph unicode="o" horiz-adv-x="727" d="M72 299v389q0 110 63 186q43 53 101.5 83t125.5 30q76 0 134.5 -27.5t109.5 -95t51 -176.5v-389q0 -111 -49 -177.5t-110.5 -100t-124.5 -33.5q-88 0 -161 44t-100.5 98t-33.5 90t-6 79zM268 299q0 -47 25.5 -81t73.5 -34q63 0 78.5 37t15.5 82v385q0 45 -25.5 77 t-68.5 32q-45 0 -72 -31t-27 -78v-389z" />
<glyph unicode="p" horiz-adv-x="743" d="M88 -389v1364h197v-94q31 49 80 78.5t106 29.5q86 0 144.5 -64.5t58.5 -152.5v-561q0 -43 -8.5 -75t-51.5 -89t-139 -57q-129 0 -190 108v-487h-197zM285 305q0 -53 24.5 -87t79.5 -34q57 0 72.5 39t15.5 82v381q0 45 -25.5 77t-70.5 32t-70.5 -32t-25.5 -77v-381z" />
<glyph unicode="q" horiz-adv-x="749" d="M78 215v563q0 86 58.5 148.5t144.5 62.5q119 0 186 -108v94h197v-1364h-197v485q-35 -49 -80 -77.5t-102 -28.5q-55 0 -106.5 30.5t-72 67.5t-24.5 64.5t-4 62.5zM274 313q0 -23 1 -43t20.5 -53t73.5 -33q59 0 77.5 33t19.5 58.5t1 37.5v373q0 47 -26.5 78t-73.5 31 q-45 0 -69 -31t-24 -78v-373z" />
<glyph unicode="r" horiz-adv-x="573" d="M86 0v975h197v-105q51 63 126 90t128 27v-201q-14 4 -28.5 6.5t-27.5 2.5q-96 0 -147 -65.5t-51 -158.5v-571h-197z" />
<glyph unicode="s" horiz-adv-x="675" d="M45 281h182q0 -45 32 -77t77 -32t77.5 28.5t32.5 73.5q0 53 -27.5 79t-86.5 46l-39 15q-61 23 -102 44t-88.5 77.5t-47.5 162.5q0 121 84 205t207 84q113 0 190.5 -86t77.5 -194h-180q0 43 -27.5 70.5t-72.5 27.5q-41 0 -67.5 -31t-26.5 -74q0 -45 26.5 -69.5t77.5 -42.5 l64 -21q55 -20 86.5 -38.5t63.5 -55.5t52.5 -86t20.5 -104q0 -119 -85 -208t-204 -89q-72 0 -144.5 38.5t-112.5 105.5t-40 151z" />
<glyph unicode="t" horiz-adv-x="483" d="M10 821v154h96v295h197v-295h121v-154h-121v-549q0 -49 13.5 -67.5t62.5 -18.5h45v-186h-62q-55 0 -98 11.5t-84 46t-57.5 76.5t-16.5 104v583h-96z" />
<glyph unicode="u" horiz-adv-x="759" d="M88 242v733h197v-660q0 -23 1 -46t22.5 -54t74.5 -31q27 0 49.5 14.5t31.5 34t11 42t2 40.5v660h197v-975h-197v98q-35 -53 -77 -81.5t-101 -28.5t-111.5 32.5t-73 74.5t-23.5 68.5t-3 78.5z" />
<glyph unicode="v" horiz-adv-x="671" d="M-2 975h207l133 -631l135 631h207l-256 -975h-172z" />
<glyph unicode="w" horiz-adv-x="1036" d="M8 975h207l123 -606l111 606h143l113 -606l120 606h207l-231 -975h-168l-111 586l-110 -586h-170z" />
<glyph unicode="x" horiz-adv-x="651" d="M-12 0l248 504l-232 471h209l119 -275l127 275h207l-236 -471l238 -504h-207l-129 305l-137 -305h-207z" />
<glyph unicode="y" horiz-adv-x="673" d="M-6 975h207l135 -604l133 604h207l-281 -1139q-29 -109 -98 -167t-182 -58h-45v184h41q39 0 70.5 20.5t39.5 57.5l43 166z" />
<glyph unicode="z" horiz-adv-x="624" d="M45 0v162l313 645h-290v168h510v-141l-314 -648h314v-186h-533z" />
<glyph unicode="{" horiz-adv-x="645" d="M37 424v164q63 18 90 64t27 120v354q0 139 71.5 202t237.5 63h96v-191q-113 0 -155 -35t-42 -145v-283q0 -88 -22.5 -142t-91.5 -93q66 -37 90 -96.5t24 -145.5v-276q0 -115 41 -151t156 -36v-182h-119q-156 0 -221 69.5t-65 215.5v331q0 80 -24 127.5t-93 65.5z" />
<glyph unicode="|" horiz-adv-x="425" d="M106 -342v1706h213v-1706h-213z" />
<glyph unicode="}" horiz-adv-x="645" d="M86 -195q113 0 155 35t42 146v282q0 88 22.5 142.5t91.5 93.5q-66 37 -90 96t-24 145v277q0 115 -41 150.5t-156 35.5v183h119q156 0 221.5 -70t65.5 -215v-332q0 -80 23.5 -127t92.5 -65v-164q-63 -18 -89.5 -64.5t-26.5 -120.5v-354q0 -139 -72 -201.5t-238 -62.5h-96 v190z" />
<glyph unicode="~" horiz-adv-x="1366" d="M193 641q49 111 119.5 178.5t176.5 67.5q63 0 209 -68.5t203 -68.5q53 0 92 38.5t76 104.5l107 -88q-35 -90 -106 -168t-187 -78q-61 0 -215 68.5t-185 68.5q-68 0 -106.5 -37.5t-75.5 -105.5z" />
<glyph unicode="&#xa1;" horiz-adv-x="446" d="M102 -416l74 1024h94l74 -1024h-242zM127 756v194h195v-194h-195z" />
<glyph unicode="&#xa2;" d="M215 508v381q0 109 68.5 197t173.5 106v184h94v-184q109 -14 178.5 -100t69.5 -203h-195q0 45 -25.5 80t-70.5 35q-51 0 -74.5 -35t-23.5 -80v-381q0 -53 23.5 -84t76.5 -31q43 0 68.5 32t25.5 77h195v-13q0 -109 -71 -189.5t-177 -98.5v-213h-94v213q-55 10 -105.5 42.5 t-80 73.5t-43 90.5t-13.5 100.5z" />
<glyph unicode="&#xa3;" horiz-adv-x="1249" d="M131 610v84h127q-63 104 -84.5 165t-21.5 114q0 88 44 169t116.5 131t159.5 71.5t179 21.5q139 0 252 -45t164 -126t68.5 -161t17.5 -155h-195q0 68 -11 116.5t-49 99t-101.5 76t-137.5 25.5q-113 0 -199.5 -59.5t-86.5 -167.5q0 -51 16.5 -88t39 -74t35.5 -57.5 t30 -55.5h245v-84h-219q6 -23 11.5 -55.5t5.5 -83.5q0 -106 -55.5 -174t-112.5 -117q31 12 81 30.5t91 18.5q78 0 180 -36.5t139 -36.5q74 0 136.5 34.5t109.5 92.5l78 -170q-68 -68 -143.5 -107t-159.5 -39q-80 0 -234.5 50.5t-175.5 50.5q-61 0 -111.5 -20.5t-107.5 -65.5 l-109 159q86 55 142.5 140.5t56.5 179.5q0 37 -9 71.5t-28 77.5h-174z" />
<glyph unicode="&#xa4;" horiz-adv-x="1427" d="M119 1178l112 110l199 -198q80 47 145.5 70.5t143.5 23.5q72 0 135.5 -23.5t136.5 -70.5l201 198l111 -110l-197 -197q45 -63 70.5 -137t25.5 -148t-22.5 -137t-67.5 -141l197 -195l-111 -112l-197 194q-68 -47 -137 -70.5t-153 -23.5q-74 0 -140.5 23.5t-142.5 70.5 l-195 -194l-110 110l192 197q-92 130 -92 280q0 76 23.5 140.5t72.5 140.5zM410 698q0 -125 90 -215t215 -90q123 0 213 90t90 215t-88 215.5t-215 90.5q-125 0 -215 -90.5t-90 -215.5z" />
<glyph unicode="&#xa5;" d="M127 819v88h180l-155 459h204l158 -535l162 535h205l-158 -459h180v-88h-211l-80 -231l183 -6v-88h-183v-494h-196v494h-180v88h180l-78 237h-211z" />
<glyph unicode="&#xa6;" d="M406 313h212v-655h-212v655zM406 668v696h212v-696h-212z" />
<glyph unicode="&#xa7;" horiz-adv-x="1169" d="M117 602q0 102 58 170t147 100q-94 82 -95 199q0 135 115 206t254 71q166 0 270.5 -94.5t104.5 -256.5h-164q0 96 -55.5 153.5t-153.5 57.5q-76 0 -133 -36.5t-57 -114.5q0 -63 45 -98t145 -87q72 -33 148.5 -72.5t153.5 -87.5t126 -111.5t49 -154.5q0 -86 -57 -159.5 t-152 -102.5q55 -49 82 -98t27 -119q0 -141 -113.5 -220t-263.5 -79q-96 0 -169 22.5t-123 74t-75.5 119t-25.5 132.5v27h164q0 -47 7 -78t32.5 -69.5t77 -60t110.5 -21.5q78 0 137.5 40t59.5 115q0 53 -25 89t-64.5 62.5t-100 59.5t-194 98.5t-213 133t-79.5 190.5z M276 621q0 -45 44.5 -92t95.5 -76q109 -59 222.5 -121t127.5 -66q59 14 102 59.5t43 104.5q0 49 -51 103.5t-108 80.5q-102 53 -209 108.5t-125 61.5q-59 -16 -100.5 -60t-41.5 -103z" />
<glyph unicode="&#xa8;" d="M244 1163v228h170v-228h-170zM612 1163v228h170v-228h-170z" />
<glyph unicode="&#xa9;" horiz-adv-x="1593" d="M90 684q0 293 207 500t502 207q289 0 496.5 -208t207.5 -499t-206.5 -500t-497.5 -209q-293 0 -501 208t-208 501zM244 684q0 -229 163 -396t392 -167t390 167t161 396t-162 395t-389 166q-229 0 -392 -165t-163 -396zM608 485v422q0 68 45 132.5t138 64.5 q86 0 141 -55.5t55 -141.5v-45h-115v45q0 80 -75 80q-35 0 -53.5 -22.5t-18.5 -57.5v-422q0 -45 16.5 -71.5t57.5 -26.5t57 26.5t16 71.5v27h115v-27q0 -49 -3 -69.5t-25.5 -57t-61.5 -62.5t-86 -26q-51 0 -100 24.5t-69.5 58.5t-27 68t-6.5 64z" />
<glyph unicode="&#xaa;" horiz-adv-x="505" d="M72 600v96h356v-96h-356zM74 928v67q0 63 45 113q37 33 65.5 38t57.5 5h67v51q0 35 -15 54.5t-38 19.5q-25 0 -43 -16.5t-23 -40.5h-116q0 72 51 123t125 51t127 -49.5t53 -124.5v-426h-121v59q-39 -68 -108 -68q-35 0 -66 18.5t-49 51.5q-8 14 -10 31.5t-2 42.5z M193 967q0 -51 49 -62q47 0 57 20.5t10 41.5v28v58h-45q-29 0 -50 -8.5t-21 -47.5v-30z" />
<glyph unicode="&#xab;" horiz-adv-x="860" d="M35 590l389 389v-193l-195 -196l195 -195v-196zM420 590l389 389v-193l-195 -196l195 -195v-196z" />
<glyph unicode="&#xac;" d="M68 391v187h886v-578h-204v391h-682z" />
<glyph unicode="&#xad;" horiz-adv-x="792" d="M104 440v195h584v-195h-584z" />
<glyph unicode="&#xae;" horiz-adv-x="1415" d="M0 63v1235q0 64 63 64h1235q63 0 64 -64v-1235q0 -63 -64 -63h-1235q-63 0 -63 63zM18 63q0 -45 45 -45h1235q47 0 48 45v1235q0 47 -48 48h-1235q-45 0 -45 -48v-1235zM117 784v58h110h135h650h129h104v-58h-104v-71h-129v71h-650v-71h-135v71h-110zM199 123l227 614 h227l-39 -614h-415zM475 872l139 373h70l-22 -373h-187zM713 1245h71l127 -373h-174zM745 737h213l211 -614h-385z" />
<glyph unicode="&#xb0;" d="M211 1055q0 131 85 220t216 89q123 0 211 -90t88 -213t-90 -211t-211 -88q-119 0 -209 86t-90 207zM303 1057q0 -82 61.5 -143.5t143.5 -61.5q84 0 147.5 61.5t63.5 147.5t-61.5 149.5t-145.5 63.5q-90 0 -149.5 -63.5t-59.5 -153.5z" />
<glyph unicode="&#xb1;" d="M37 90v107h948v-107h-948zM37 676v106h418v400h110v-400h420v-106h-420v-391h-110v391h-418z" />
<glyph unicode="&#xb2;" horiz-adv-x="483" d="M47 1122v66q0 78 56.5 132t140.5 54q74 0 129 -51t55 -127v-76q0 -25 -7 -49t-24 -53l-184 -342h215v-129h-379v115l227 417q12 29 13 56v61q0 23 -14.5 37t-36.5 14q-20 0 -36 -13t-16 -34v-78h-139z" />
<glyph unicode="&#xb3;" horiz-adv-x="495" d="M49 737v56h137v-45q0 -39 8.5 -58.5t43.5 -19.5q29 0 41 19.5t12 47.5v125q0 31 -18.5 42t-49.5 11h-30v115h30q68 0 68 62v96q0 57 -49 57q-55 0 -56 -57v-68h-137v68q0 78 55.5 131t135.5 53q78 0 133 -53t55 -131v-94q0 -68 -68 -121q68 -47 68 -127v-109 q0 -37 -5 -58.5t-25.5 -56t-66.5 -59t-98 -24.5q-53 0 -99 28.5t-61.5 62.5t-19.5 59.5t-4 47.5z" />
<glyph unicode="&#xb4;" d="M395 1122l211 279h193l-281 -279h-123z" />
<glyph unicode="&#xb5;" d="M227 -319v1294h195v-660q0 -23 1 -46t22.5 -54t76.5 -31q57 0 74.5 34t19.5 56.5t2 40.5v660h195v-975h-195v98q-12 -51 -40.5 -75.5t-67.5 -24.5q-45 0 -62.5 6t-27.5 16v-339h-193z" />
<glyph unicode="&#xb6;" horiz-adv-x="1116" d="M74 1004q0 98 44 181t113.5 120.5t140 49t152.5 11.5h496v-86h-115v-1511h-108v1511h-209v-1511h-109v878l-43 -2q-156 0 -259 101.5t-103 257.5z" />
<glyph unicode="&#xb7;" horiz-adv-x="436" d="M117 365v282h200v-282h-200z" />
<glyph unicode="&#xb8;" d="M289 -365l30 66q49 -20 93.5 -31.5t93.5 -11.5q45 0 81 22.5t36 67.5q0 43 -33 61.5t-82 18.5q-16 0 -31.5 -4t-52.5 -14l-43 34l106 156h86l-77 -113q12 2 45 6.5t39 4.5q72 0 121 -39t49 -109q0 -37 -21.5 -72.5t-54.5 -55t-74 -29t-82 -9.5q-55 0 -113.5 13.5 t-115.5 37.5z" />
<glyph unicode="&#xb9;" horiz-adv-x="370" d="M37 1139v139l125 88h133v-819h-137v676z" />
<glyph unicode="&#xba;" horiz-adv-x="505" d="M80 600v96h350v-96h-350zM80 981v233q0 68 37 111q57 68 137 68q78 0 127 -51.5t49 -127.5v-233q0 -66 -44 -126t-122 -60q-51 0 -98 26.5t-62.5 58t-19.5 55t-4 46.5zM197 981q0 -68 61 -68q31 0 43 20.5t12 47.5v233q0 27 -15 46.5t-42 19.5q-59 0 -59 -66v-233z" />
<glyph unicode="&#xbb;" horiz-adv-x="860" d="M39 201v192l194 197l-194 194v197l389 -391zM424 201v192l194 197l-194 194v197l389 -391z" />
<glyph unicode="&#xbc;" horiz-adv-x="1159" d="M37 1139v139l125 88h133v-819h-137v676zM78 0l745 1366h109l-746 -1366h-108zM674 123v115l178 581h145l-182 -575h100v231h140v-231h59v-121h-59v-123h-140v123h-241z" />
<glyph unicode="&#xbd;" horiz-adv-x="1124" d="M37 1139v139l125 88h133v-819h-137v676zM78 0l745 1366h109l-746 -1366h-108zM688 575v66q0 78 56.5 132t140.5 54q74 0 129 -51t55 -127v-76q0 -25 -7 -49t-24 -53l-184 -342h215v-129h-379v115l228 417q12 29 12 56v61q0 23 -14.5 37t-36.5 14q-20 0 -36 -13t-16 -34 v-78h-139z" />
<glyph unicode="&#xbe;" horiz-adv-x="1284" d="M49 739v54h137v-45q0 -39 8.5 -58.5t43.5 -19.5q29 0 41 20.5t12 48.5v123q0 31 -18.5 42t-49.5 11h-30v115h30q68 0 68 62v96q0 25 -13.5 42t-35.5 17q-27 0 -41.5 -16.5t-14.5 -42.5v-66h-137v66q0 78 55.5 131t135.5 53q78 0 133 -53t55 -131v-94q0 -68 -68 -121 q37 -25 52.5 -54.5t15.5 -72.5v-107q0 -27 -3 -51t-25.5 -62t-68.5 -62.5t-98 -24.5q-53 0 -99 28.5t-61.5 62.5t-19.5 58.5t-4 50.5zM205 0l743 1366h109l-746 -1366h-106zM799 123v115l178 581h145l-182 -575h102v231h138v-231h59v-121h-59v-123h-138v123h-243z" />
<glyph unicode="&#xbf;" horiz-adv-x="765" d="M92 -57q0 100 47 184l121 211q27 51 27 129v108h196v-108q0 -80 -11 -130.5t-50 -111.5l-103 -168q-33 -51 -32 -125v-106q0 -41 28.5 -65.5t71.5 -24.5q49 0 70.5 30.5t21.5 81.5v95h195v-95q0 -131 -85 -220t-216 -89q-113 0 -197 86t-84 201v117zM287 723v195h196 v-195h-196z" />
<glyph unicode="&#xc0;" horiz-adv-x="776" d="M2 0l305 1366h170l305 -1366h-209l-55 293h-254l-55 -293h-207zM94 1745h192l213 -279h-125zM299 475h184l-92 498z" />
<glyph unicode="&#xc1;" horiz-adv-x="776" d="M2 0l305 1366h170l305 -1366h-209l-55 293h-254l-55 -293h-207zM286 1466l211 279h193l-281 -279h-123zM299 475h184l-92 498z" />
<glyph unicode="&#xc2;" horiz-adv-x="776" d="M2 0l305 1366h170l305 -1366h-209l-55 293h-254l-55 -293h-207zM96 1478l213 279h164l211 -279h-150l-147 195l-143 -195h-148zM299 475h184l-92 498z" />
<glyph unicode="&#xc3;" horiz-adv-x="776" d="M2 0l305 1366h170l305 -1366h-209l-55 293h-254l-55 -293h-207zM102 1510q12 78 52 138t120 60q53 0 128 -46t108 -46t52.5 26.5t29.5 63.5h84q-12 -78 -45 -133t-107 -55q-47 0 -133 44t-119 44q-37 0 -56.5 -28t-27.5 -68h-86zM299 475h184l-92 498z" />
<glyph unicode="&#xc4;" horiz-adv-x="776" d="M2 0l305 1366h170l305 -1366h-209l-55 293h-254l-55 -293h-207zM123 1450v228h170v-228h-170zM299 475h184l-92 498zM491 1450v228h170v-228h-170z" />
<glyph unicode="&#xc5;" horiz-adv-x="776" d="M2 0l305 1366h170l305 -1366h-209l-55 293h-254l-55 -293h-207zM178 1657q0 86 62.5 148.5t146.5 62.5q86 0 148.5 -62.5t62.5 -148.5t-61.5 -147.5t-149.5 -61.5q-86 0 -147.5 61.5t-61.5 147.5zM262 1657q0 -51 37 -88t88 -37q53 0 90 37t37 88q0 53 -37 90t-90 37 q-51 0 -88 -36.5t-37 -90.5zM299 475h184l-92 498z" />
<glyph unicode="&#xc6;" horiz-adv-x="1267" d="M0 0l610 1366h584v-180h-387v-404h340v-184h-340v-401h387v-197h-584v293h-282l-121 -293h-207zM403 475h207v498z" />
<glyph unicode="&#xc7;" horiz-adv-x="788" d="M92 344v705q0 51 13.5 100t49 101.5t102.5 90t140 37.5q141 0 234.5 -93t93.5 -236v-74h-193v74q0 57 -31.5 95t-92.5 38q-55 0 -87 -38t-32 -95v-705v-27q0 -20 1 -38.5t26.5 -57.5t93.5 -39q72 0 93 36t25 53.5t4 47.5v25v45h193v-45q0 -86 -9 -126t-46 -96t-110 -95 t-124 -39l-69 -101l22 4q31 4 62 7q72 0 121 -39t49 -109q0 -37 -21.5 -72.5t-54.5 -55t-74 -29t-82 -9.5q-55 0 -113.5 13.5t-115.5 37.5l30 66q49 -20 93.5 -31.5t93.5 -11.5q45 0 81 22.5t36 67.5q0 43 -33 61.5t-80 18.5q-16 0 -35.5 -4t-50.5 -14l-43 34l102 150 q-68 14 -125 52t-92 95q-27 45 -36 92.5t-9 110.5z" />
<glyph unicode="&#xc8;" horiz-adv-x="763" d="M86 1745h192l213 -279h-125zM106 0v1366h584v-180h-391v-404h344v-184h-344v-401h391v-197h-584z" />
<glyph unicode="&#xc9;" horiz-adv-x="763" d="M106 0v1366h584v-180h-391v-404h344v-184h-344v-401h391v-197h-584zM278 1466l211 279h193l-281 -279h-123z" />
<glyph unicode="&#xca;" horiz-adv-x="763" d="M88 1478l213 279h164l211 -279h-150l-147 195l-143 -195h-148zM106 0v1366h584v-180h-391v-404h344v-184h-344v-401h391v-197h-584z" />
<glyph unicode="&#xcb;" horiz-adv-x="763" d="M106 0v1366h584v-180h-391v-404h344v-184h-344v-401h391v-197h-584zM113 1450v228h170v-228h-170zM481 1450v228h170v-228h-170z" />
<glyph unicode="&#xcc;" horiz-adv-x="407" d="M-92 1745h192l213 -279h-125zM106 0v1366h193v-1366h-193z" />
<glyph unicode="&#xcd;" horiz-adv-x="407" d="M100 1466l211 279h193l-281 -279h-123zM106 0v1366h193v-1366h-193z" />
<glyph unicode="&#xce;" horiz-adv-x="407" d="M-90 1478l213 279h164l211 -279h-150l-147 195l-143 -195h-148zM106 0v1366h193v-1366h-193z" />
<glyph unicode="&#xcf;" horiz-adv-x="407" d="M-65 1450v228h170v-228h-170zM106 0v1366h193v-1366h-193zM303 1450v228h170v-228h-170z" />
<glyph unicode="&#xd0;" horiz-adv-x="829" d="M-12 623v163h118v580h310q131 0 226 -93t95 -224v-711q0 -147 -91 -242.5t-236 -95.5h-304v623h-118zM301 182h94q76 0 112 40t36 116v711q0 57 -42 95t-100 38h-100v-396h129v-165h-129v-439z" />
<glyph unicode="&#xd1;" horiz-adv-x="894" d="M106 0v1366h185l303 -827v827h194v-1366h-182l-305 829v-829h-195zM159 1510q12 78 52 138t120 60q53 0 128 -46t108 -46t52.5 26.5t29.5 63.5h84q-12 -78 -45 -133t-107 -55q-47 0 -133 44t-119 44q-37 0 -56.5 -28t-27.5 -68h-86z" />
<glyph unicode="&#xd2;" horiz-adv-x="841" d="M92 338v696q0 61 13.5 108.5t46.5 94.5q47 66 118.5 103.5t149.5 37.5q76 0 142.5 -30.5t110.5 -84t60.5 -108.5t16.5 -121v-696q0 -61 -11.5 -107.5t-48.5 -103.5t-108.5 -98t-155.5 -41q-96 0 -177 49t-113 111.5t-38 100.5t-6 89zM125 1745h192l213 -279h-125z M287 338q0 -20 3 -45t32.5 -67t101.5 -42q37 0 66.5 17.5t43 40t17.5 43t4 53.5v696q0 41 -3.5 57t-21.5 39q-41 55 -106 56q-35 0 -68.5 -19.5t-47 -43t-17.5 -48t-4 -41.5v-696z" />
<glyph unicode="&#xd3;" horiz-adv-x="841" d="M92 338v696q0 61 13.5 108.5t46.5 94.5q47 66 118.5 103.5t149.5 37.5q76 0 142.5 -30.5t110.5 -84t60.5 -108.5t16.5 -121v-696q0 -61 -11.5 -107.5t-48.5 -103.5t-108.5 -98t-155.5 -41q-96 0 -177 49t-113 111.5t-38 100.5t-6 89zM287 338q0 -20 3 -45t32.5 -67 t101.5 -42q37 0 66.5 17.5t43 40t17.5 43t4 53.5v696q0 41 -3.5 57t-21.5 39q-41 55 -106 56q-35 0 -68.5 -19.5t-47 -43t-17.5 -48t-4 -41.5v-696zM317 1466l211 279h193l-281 -279h-123z" />
<glyph unicode="&#xd4;" horiz-adv-x="841" d="M92 338v696q0 61 13.5 108.5t46.5 94.5q47 66 118.5 103.5t149.5 37.5q76 0 142.5 -30.5t110.5 -84t60.5 -108.5t16.5 -121v-696q0 -61 -11.5 -107.5t-48.5 -103.5t-108.5 -98t-155.5 -41q-96 0 -177 49t-113 111.5t-38 100.5t-6 89zM127 1478l213 279h164l211 -279h-150 l-147 195l-143 -195h-148zM287 338q0 -20 3 -45t32.5 -67t101.5 -42q37 0 66.5 17.5t43 40t17.5 43t4 53.5v696q0 41 -3.5 57t-21.5 39q-41 55 -106 56q-35 0 -68.5 -19.5t-47 -43t-17.5 -48t-4 -41.5v-696z" />
<glyph unicode="&#xd5;" horiz-adv-x="841" d="M92 338v696q0 61 13.5 108.5t46.5 94.5q47 66 118.5 103.5t149.5 37.5q76 0 142.5 -30.5t110.5 -84t60.5 -108.5t16.5 -121v-696q0 -61 -11.5 -107.5t-48.5 -103.5t-108.5 -98t-155.5 -41q-96 0 -177 49t-113 111.5t-38 100.5t-6 89zM133 1510q12 78 52 138t120 60 q53 0 128 -46t108 -46t52.5 26.5t29.5 63.5h84q-12 -78 -45 -133t-107 -55q-47 0 -133 44t-119 44q-37 0 -56.5 -28t-27.5 -68h-86zM287 338q0 -20 3 -45t32.5 -67t101.5 -42q37 0 66.5 17.5t43 40t17.5 43t4 53.5v696q0 41 -3.5 57t-21.5 39q-41 55 -106 56 q-35 0 -68.5 -19.5t-47 -43t-17.5 -48t-4 -41.5v-696z" />
<glyph unicode="&#xd6;" horiz-adv-x="841" d="M92 338v696q0 61 13.5 108.5t46.5 94.5q47 66 118.5 103.5t149.5 37.5q76 0 142.5 -30.5t110.5 -84t60.5 -108.5t16.5 -121v-696q0 -61 -11.5 -107.5t-48.5 -103.5t-108.5 -98t-155.5 -41q-96 0 -177 49t-113 111.5t-38 100.5t-6 89zM152 1450v228h170v-228h-170z M287 338q0 -20 3 -45t32.5 -67t101.5 -42q37 0 66.5 17.5t43 40t17.5 43t4 53.5v696q0 41 -3.5 57t-21.5 39q-41 55 -106 56q-35 0 -68.5 -19.5t-47 -43t-17.5 -48t-4 -41.5v-696zM520 1450v228h170v-228h-170z" />
<glyph unicode="&#xd7;" d="M117 393l321 320l-319 315l76 76l317 -318l319 320l76 -78l-319 -317l319 -318l-76 -76l-317 320l-319 -322z" />
<glyph unicode="&#xd8;" horiz-adv-x="841" d="M49 -8l80 170q-18 37 -27.5 81t-9.5 95v696q0 59 13.5 107.5t52.5 103.5t110.5 93t149.5 38q63 0 122.5 -23.5t110.5 -68.5l58 121l82 -39l-78 -166q37 -74 37 -166v-696q0 -61 -11.5 -107.5t-49.5 -103.5t-110.5 -98t-154.5 -41q-133 0 -231 92l-60 -127zM287 502 l266 571q-6 45 -45 78t-86 33q-78 0 -119 -72q-8 -14 -12 -36.5t-4 -41.5v-532zM289 291q14 -49 48 -79t87 -30q33 0 66 20.5t49 49.5q10 18 13 36.5t3 49.5v522z" />
<glyph unicode="&#xd9;" horiz-adv-x="845" d="M106 322v1044h195v-1044q0 -27 4 -46.5t32 -56.5t91 -37q59 0 89 43t30 97v1044h194v-1044q0 -49 -10 -93.5t-35 -85.5q-43 -70 -114.5 -112.5t-155.5 -42.5q-86 0 -163 44t-107.5 100t-40 98t-9.5 92zM127 1745h192l213 -279h-125z" />
<glyph unicode="&#xda;" horiz-adv-x="845" d="M106 322v1044h195v-1044q0 -27 4 -46.5t32 -56.5t91 -37q59 0 89 43t30 97v1044h194v-1044q0 -49 -10 -93.5t-35 -85.5q-43 -70 -114.5 -112.5t-155.5 -42.5q-86 0 -163 44t-107.5 100t-40 98t-9.5 92zM321 1466l211 279h193l-281 -279h-123z" />
<glyph unicode="&#xdb;" horiz-adv-x="845" d="M106 322v1044h195v-1044q0 -27 4 -46.5t32 -56.5t91 -37q59 0 89 43t30 97v1044h194v-1044q0 -49 -10 -93.5t-35 -85.5q-43 -70 -114.5 -112.5t-155.5 -42.5q-86 0 -163 44t-107.5 100t-40 98t-9.5 92zM131 1478l213 279h164l211 -279h-150l-147 195l-143 -195h-148z" />
<glyph unicode="&#xdc;" horiz-adv-x="845" d="M106 322v1044h195v-1044q0 -27 4 -46.5t32 -56.5t91 -37q59 0 89 43t30 97v1044h194v-1044q0 -49 -10 -93.5t-35 -85.5q-43 -70 -114.5 -112.5t-155.5 -42.5q-86 0 -163 44t-107.5 100t-40 98t-9.5 92zM156 1450v228h170v-228h-170zM524 1450v228h170v-228h-170z" />
<glyph unicode="&#xdd;" horiz-adv-x="712" d="M-8 1366h205l157 -535l162 535h205l-270 -778v-588h-195v588zM248 1466l211 279h193l-281 -279h-123z" />
<glyph unicode="&#xde;" horiz-adv-x="772" d="M106 0v1368h197v-172l123 -2q59 0 118.5 -24.5t99.5 -64.5t67.5 -95.5t27.5 -106.5v-198q0 -76 -20.5 -135.5t-70.5 -109.5t-108.5 -71.5t-136.5 -21.5h-100v-367h-197zM303 551h100q41 0 66.5 7t50.5 32q23 23 30 48.5t7 66.5v178q0 57 -39 94t-98 37h-117v-463z" />
<glyph unicode="&#xdf;" horiz-adv-x="753" d="M88 0v1061q0 59 7 96t34 78q39 66 104.5 104.5t141.5 38.5q117 0 208 -80.5t91 -197.5v-125q0 -121 -109 -178q109 -70 109 -195v-360q0 -61 -16.5 -105.5t-67.5 -90.5t-141 -46h-43v184h16q37 0 52 21.5t15 58.5v383q0 33 -23.5 48.5t-59.5 15.5v170h12q72 0 71 67v131 q0 45 -29.5 75t-76.5 30q-55 0 -77.5 -33t-22.5 -90v-1061h-195z" />
<glyph unicode="&#xe0;" horiz-adv-x="739" d="M70 223v111q0 109 54 162t98 72.5t106 19.5h131v84q0 29 -3 47t-25.5 47t-61.5 29q-41 0 -70 -27t-35 -70h-194q0 119 85 204t205 85q119 0 207 -84t88 -205v-698h-196v98q-31 -51 -77 -80.5t-103 -29.5q-130 -1 -187 114q-14 25 -18 54.5t-4 66.5zM103 1401h192 l213 -279h-125zM266 287q0 -39 28 -71t73 -32q25 0 46 12.5t32.5 34t12.5 55t1 48.5v94h-74q-53 0 -86 -20.5t-33 -71.5v-49z" />
<glyph unicode="&#xe1;" horiz-adv-x="739" d="M70 223v111q0 109 54 162t98 72.5t106 19.5h131v84q0 29 -3 47t-25.5 47t-61.5 29q-41 0 -70 -27t-35 -70h-194q0 119 85 204t205 85q119 0 207 -84t88 -205v-698h-196v98q-31 -51 -77 -80.5t-103 -29.5q-130 -1 -187 114q-14 25 -18 54.5t-4 66.5zM254 1122l211 279h193 l-281 -279h-123zM266 287q0 -39 28 -71t73 -32q25 0 46 12.5t32.5 34t12.5 55t1 48.5v94h-74q-53 0 -86 -20.5t-33 -71.5v-49z" />
<glyph unicode="&#xe2;" horiz-adv-x="739" d="M70 223v111q0 109 54 162t98 72.5t106 19.5h131v84q0 29 -3 47t-25.5 47t-61.5 29q-41 0 -70 -27t-35 -70h-194q0 119 85 204t205 85q119 0 207 -84t88 -205v-698h-196v98q-31 -51 -77 -80.5t-103 -29.5q-130 -1 -187 114q-14 25 -18 54.5t-4 66.5zM78 1126l213 279h164 l211 -279h-150l-147 195l-143 -195h-148zM266 287q0 -39 28 -71t73 -32q25 0 46 12.5t32.5 34t12.5 55t1 48.5v94h-74q-53 0 -86 -20.5t-33 -71.5v-49z" />
<glyph unicode="&#xe3;" horiz-adv-x="739" d="M70 223v111q0 109 54 162t98 72.5t106 19.5h131v84q0 29 -3 47t-25.5 47t-61.5 29q-41 0 -70 -27t-35 -70h-194q0 119 85 204t205 85q119 0 207 -84t88 -205v-698h-196v98q-31 -51 -77 -80.5t-103 -29.5q-130 -1 -187 114q-14 25 -18 54.5t-4 66.5zM84 1174q12 78 52 138 t120 60q53 0 128 -46t108 -46t52.5 26.5t29.5 63.5h84q-12 -78 -45 -133t-107 -55q-47 0 -133 44t-119 44q-37 0 -56.5 -28t-27.5 -68h-86zM266 287q0 -39 28 -71t73 -32q25 0 46 12.5t32.5 34t12.5 55t1 48.5v94h-74q-53 0 -86 -20.5t-33 -71.5v-49z" />
<glyph unicode="&#xe4;" horiz-adv-x="739" d="M70 223v111q0 109 54 162t98 72.5t106 19.5h131v84q0 29 -3 47t-25.5 47t-61.5 29q-41 0 -70 -27t-35 -70h-194q0 119 85 204t205 85q119 0 207 -84t88 -205v-698h-196v98q-31 -51 -77 -80.5t-103 -29.5q-130 -1 -187 114q-14 25 -18 54.5t-4 66.5zM107 1157v228h170 v-228h-170zM266 287q0 -39 28 -71t73 -32q25 0 46 12.5t32.5 34t12.5 55t1 48.5v94h-74q-53 0 -86 -20.5t-33 -71.5v-49zM475 1157v228h170v-228h-170z" />
<glyph unicode="&#xe5;" horiz-adv-x="739" d="M70 223v111q0 109 54 162t98 72.5t106 19.5h131v84q0 29 -3 47t-25.5 47t-61.5 29q-41 0 -70 -27t-35 -70h-194q0 119 85 204t205 85q119 0 207 -84t88 -205v-698h-196v98q-31 -51 -77 -80.5t-103 -29.5q-130 -1 -187 114q-14 25 -18 54.5t-4 66.5zM162 1292 q0 86 62.5 148.5t146.5 62.5q86 0 148.5 -62.5t62.5 -148.5t-61.5 -147.5t-149.5 -61.5q-86 0 -147.5 61.5t-61.5 147.5zM246 1292q0 -51 37 -88t88 -37q53 0 90 37t37 88q0 53 -37 90t-90 37q-51 0 -88 -36.5t-37 -90.5zM266 287q0 -39 28 -71t73 -32q25 0 46 12.5t32.5 34 t12.5 55t1 48.5v94h-74q-53 0 -86 -20.5t-33 -71.5v-49z" />
<glyph unicode="&#xe6;" horiz-adv-x="1110" d="M68 223v109q0 113 53 164t97 70.5t112 19.5h127v86q0 29 -3 46t-25.5 47t-66.5 30q-41 0 -67.5 -27t-32.5 -70h-194q0 119 85 204t205 85q115 0 199 -90q41 43 90 66.5t105 23.5q125 0 207.5 -87t82.5 -214v-270h-389v-137q0 -37 29 -66t63 -29q43 0 73 30t30 67h194v-21 q0 -47 -19 -91t-79.5 -112.5t-193.5 -68.5q-76 0 -139.5 43t-102.5 114q-35 -68 -97.5 -112.5t-134.5 -44.5q-129 0 -164.5 69.5t-39.5 99t-4 66.5zM264 287q0 -43 24.5 -73t73.5 -30q23 0 48.5 12.5t36 34t10.5 64.5v37v94h-74q-55 0 -87 -19.5t-32 -70.5v-49zM653 575h195 v99q0 53 -22.5 87t-75.5 34t-75 -35t-22 -86v-99z" />
<glyph unicode="&#xe7;" horiz-adv-x="702" d="M72 299v381q0 121 83 214t205 93q127 0 211 -90t84 -217h-194q0 45 -25.5 80t-70.5 35q-51 0 -75 -35t-24 -80v-381q0 -53 23.5 -84t77.5 -31q43 0 68.5 32t25.5 77h194v-12q0 -117 -83 -204t-189 -87l-70 -103l23 4q31 4 61 7q72 0 121 -39t49 -109q0 -37 -21.5 -72.5 t-54 -55t-73.5 -29t-82 -9.5q-55 0 -113.5 13.5t-116.5 37.5l31 66q49 -20 93 -31.5t94 -11.5q45 0 80.5 22.5t35.5 67.5q0 43 -32.5 61.5t-79.5 18.5q-16 0 -36 -4t-50 -14l-43 34l102 150q-110 27 -176 119q-27 37 -40 86t-13 100z" />
<glyph unicode="&#xe8;" horiz-adv-x="722" d="M70 317v371q0 121 87 210t208 89q125 0 207.5 -87t82.5 -212v-270h-389v-146q0 -31 29.5 -58.5t62.5 -27.5q43 0 70 27t33 70h194v-23q0 -45 -19.5 -90t-80.5 -113.5t-193 -68.5q-84 0 -154.5 45t-97 99t-33.5 98t-7 87zM92 1401h192l213 -279h-125zM266 578h193v96 q0 53 -23 87t-74 34q-39 0 -67.5 -27t-28.5 -94v-96z" />
<glyph unicode="&#xe9;" horiz-adv-x="722" d="M70 317v371q0 121 87 210t208 89q125 0 207.5 -87t82.5 -212v-270h-389v-146q0 -31 29.5 -58.5t62.5 -27.5q43 0 70 27t33 70h194v-23q0 -45 -19.5 -90t-80.5 -113.5t-193 -68.5q-84 0 -154.5 45t-97 99t-33.5 98t-7 87zM243 1122l211 279h193l-281 -279h-123zM266 578 h193v96q0 53 -23 87t-74 34q-39 0 -67.5 -27t-28.5 -94v-96z" />
<glyph unicode="&#xea;" horiz-adv-x="722" d="M67 1126l213 279h164l211 -279h-150l-147 195l-143 -195h-148zM70 317v371q0 121 87 210t208 89q125 0 207.5 -87t82.5 -212v-270h-389v-146q0 -31 29.5 -58.5t62.5 -27.5q43 0 70 27t33 70h194v-23q0 -45 -19.5 -90t-80.5 -113.5t-193 -68.5q-84 0 -154.5 45t-97 99 t-33.5 98t-7 87zM266 578h193v96q0 53 -23 87t-74 34q-39 0 -67.5 -27t-28.5 -94v-96z" />
<glyph unicode="&#xeb;" horiz-adv-x="722" d="M70 317v371q0 121 87 210t208 89q125 0 207.5 -87t82.5 -212v-270h-389v-146q0 -31 29.5 -58.5t62.5 -27.5q43 0 70 27t33 70h194v-23q0 -45 -19.5 -90t-80.5 -113.5t-193 -68.5q-84 0 -154.5 45t-97 99t-33.5 98t-7 87zM90 1163v228h170v-228h-170zM266 578h193v96 q0 53 -23 87t-74 34q-39 0 -67.5 -27t-28.5 -94v-96zM458 1163v228h170v-228h-170z" />
<glyph unicode="&#xec;" horiz-adv-x="368" d="M-86 1401h192l213 -279h-125zM86 0v975h195v-975h-195z" />
<glyph unicode="&#xed;" horiz-adv-x="368" d="M65 1122l211 279h193l-281 -279h-123zM86 0v975h195v-975h-195z" />
<glyph unicode="&#xee;" horiz-adv-x="368" d="M-111 1126l213 279h164l211 -279h-150l-147 195l-143 -195h-148zM86 0v975h195v-975h-195z" />
<glyph unicode="&#xef;" horiz-adv-x="618" d="M0 1161v228h170v-228h-170zM172 0v973h195v-973h-195zM369 1161v228h170v-228h-170z" />
<glyph unicode="&#xf0;" horiz-adv-x="749" d="M86 252v278q0 25 1 61t23.5 83t70.5 84t122 37q61 0 92 -9.5t56 -17.5q0 41 -26 121t-77 160l-178 -123l-45 69l172 121q-35 45 -80 83t-104 67l77 57q61 -25 114.5 -58.5t98.5 -74.5l168 117l50 -70l-156 -109q115 -133 160 -301t45 -325v-223q0 -127 -85 -216.5 t-210 -89.5q-145 0 -201.5 79t-72 119t-15.5 81zM283 279q0 -49 24.5 -81t73.5 -32q57 0 75.5 37t18.5 76v223q0 53 -23.5 84.5t-68.5 31.5q-51 0 -75.5 -32.5t-24.5 -83.5v-223z" />
<glyph unicode="&#xf1;" horiz-adv-x="757" d="M84 0v975h197v-94q66 106 182 106q119 0 178 -100q16 -25 22.5 -59.5t6.5 -69.5v-758h-197v686q0 109 -96 109q-43 0 -69.5 -33t-26.5 -76v-686h-197zM90 1174q12 78 52 138t120 60q53 0 128 -46t108 -46t52.5 26.5t29.5 63.5h84q-12 -78 -45 -133t-107 -55 q-47 0 -133 44t-119 44q-37 0 -56.5 -28t-27.5 -68h-86z" />
<glyph unicode="&#xf2;" horiz-adv-x="727" d="M72 299v389q0 110 63 186q43 53 101.5 83t125.5 30q76 0 134.5 -27.5t109.5 -95t51 -176.5v-389q0 -111 -49 -177.5t-110.5 -100t-124.5 -33.5q-88 0 -161 44t-100.5 98t-33.5 90t-6 79zM97 1401h192l213 -279h-125zM268 299q0 -47 25.5 -81t73.5 -34q63 0 78.5 37 t15.5 82v385q0 45 -25.5 77t-68.5 32q-45 0 -72 -31t-27 -78v-389z" />
<glyph unicode="&#xf3;" horiz-adv-x="727" d="M72 299v389q0 110 63 186q43 53 101.5 83t125.5 30q76 0 134.5 -27.5t109.5 -95t51 -176.5v-389q0 -111 -49 -177.5t-110.5 -100t-124.5 -33.5q-88 0 -161 44t-100.5 98t-33.5 90t-6 79zM248 1122l211 279h193l-281 -279h-123zM268 299q0 -47 25.5 -81t73.5 -34 q63 0 78.5 37t15.5 82v385q0 45 -25.5 77t-68.5 32q-45 0 -72 -31t-27 -78v-389z" />
<glyph unicode="&#xf4;" horiz-adv-x="727" d="M69 1126l213 279h164l211 -279h-150l-147 195l-143 -195h-148zM72 299v389q0 110 63 186q43 53 101.5 83t125.5 30q76 0 134.5 -27.5t109.5 -95t51 -176.5v-389q0 -111 -49 -177.5t-110.5 -100t-124.5 -33.5q-88 0 -161 44t-100.5 98t-33.5 90t-6 79zM268 299 q0 -47 25.5 -81t73.5 -34q63 0 78.5 37t15.5 82v385q0 45 -25.5 77t-68.5 32q-45 0 -72 -31t-27 -78v-389z" />
<glyph unicode="&#xf5;" horiz-adv-x="727" d="M72 299v389q0 110 63 186q43 53 101.5 83t125.5 30q76 0 134.5 -27.5t109.5 -95t51 -176.5v-389q0 -111 -49 -177.5t-110.5 -100t-124.5 -33.5q-88 0 -161 44t-100.5 98t-33.5 90t-6 79zM78 1174q12 78 52 138t120 60q53 0 128 -46t108 -46t52.5 26.5t29.5 63.5h84 q-12 -78 -45 -133t-107 -55q-47 0 -133 44t-119 44q-37 0 -56.5 -28t-27.5 -68h-86zM268 299q0 -47 25.5 -81t73.5 -34q63 0 78.5 37t15.5 82v385q0 45 -25.5 77t-68.5 32q-45 0 -72 -31t-27 -78v-389z" />
<glyph unicode="&#xf6;" horiz-adv-x="727" d="M72 299v389q0 110 63 186q43 53 101.5 83t125.5 30q76 0 134.5 -27.5t109.5 -95t51 -176.5v-389q0 -111 -49 -177.5t-110.5 -100t-124.5 -33.5q-88 0 -161 44t-100.5 98t-33.5 90t-6 79zM97 1157v228h170v-228h-170zM268 299q0 -47 25.5 -81t73.5 -34q63 0 78.5 37 t15.5 82v385q0 45 -25.5 77t-68.5 32q-45 0 -72 -31t-27 -78v-389zM465 1157v228h170v-228h-170z" />
<glyph unicode="&#xf7;" d="M37 655v107h948v-107h-948zM420 340q0 37 26.5 63.5t63.5 26.5q39 0 65.5 -26.5t26.5 -63.5q0 -39 -26.5 -65.5t-65.5 -26.5q-37 0 -63.5 26.5t-26.5 65.5zM420 1079q0 37 26.5 63.5t65.5 26.5q37 0 63.5 -26.5t26.5 -63.5q0 -39 -26.5 -65.5t-63.5 -26.5 q-39 0 -65.5 26.5t-26.5 65.5z" />
<glyph unicode="&#xf8;" horiz-adv-x="727" d="M49 39l57 100q-35 72 -34 160v389q0 57 13 101.5t52 90.5t99.5 76.5t125.5 30.5q106 0 195 -69l41 71l80 -45l-60 -102q37 -68 37 -154v-389q0 -57 -13 -102t-49 -93.5t-97.5 -82t-122.5 -33.5q-115 0 -205 73l-39 -67zM266 414l187 323q-12 25 -36 42.5t-52 17.5 q-43 0 -71 -32t-28 -77v-274zM274 246q29 -61 95 -62q92 0 92 115v270z" />
<glyph unicode="&#xf9;" horiz-adv-x="759" d="M88 242v733h197v-660q0 -23 1 -46t22.5 -54t74.5 -31q27 0 49.5 14.5t31.5 34t11 42t2 40.5v660h197v-975h-197v98q-35 -53 -77 -81.5t-101 -28.5t-111.5 32.5t-73 74.5t-23.5 68.5t-3 78.5zM113 1401h192l213 -279h-125z" />
<glyph unicode="&#xfa;" horiz-adv-x="759" d="M88 242v733h197v-660q0 -23 1 -46t22.5 -54t74.5 -31q27 0 49.5 14.5t31.5 34t11 42t2 40.5v660h197v-975h-197v98q-35 -53 -77 -81.5t-101 -28.5t-111.5 32.5t-73 74.5t-23.5 68.5t-3 78.5zM264 1122l211 279h193l-281 -279h-123z" />
<glyph unicode="&#xfb;" horiz-adv-x="759" d="M88 242v733h197v-660q0 -23 1 -46t22.5 -54t74.5 -31q27 0 49.5 14.5t31.5 34t11 42t2 40.5v660h197v-975h-197v98q-35 -53 -77 -81.5t-101 -28.5t-111.5 32.5t-73 74.5t-23.5 68.5t-3 78.5zM88 1126l213 279h164l211 -279h-150l-147 195l-143 -195h-148z" />
<glyph unicode="&#xfc;" horiz-adv-x="759" d="M88 242v733h197v-660q0 -23 1 -46t22.5 -54t74.5 -31q27 0 49.5 14.5t31.5 34t11 42t2 40.5v660h197v-975h-197v98q-35 -53 -77 -81.5t-101 -28.5t-111.5 32.5t-73 74.5t-23.5 68.5t-3 78.5zM113 1157v228h170v-228h-170zM481 1157v228h170v-228h-170z" />
<glyph unicode="&#xfd;" horiz-adv-x="673" d="M-6 975h207l135 -604l133 604h207l-281 -1139q-29 -109 -98 -167t-182 -58h-45v184h41q39 0 70.5 20.5t39.5 57.5l43 166zM221 1124l211 279h193l-281 -279h-123z" />
<glyph unicode="&#xfe;" horiz-adv-x="751" d="M88 -389v1755h197v-485q31 49 80 78.5t106 29.5q86 0 144.5 -64.5t58.5 -152.5v-561q0 -43 -8.5 -75t-51.5 -89t-139 -57q-129 0 -190 108v-487h-197zM285 305q0 -55 21.5 -88t76.5 -33q49 0 72.5 30t23.5 89v383q0 47 -26.5 78t-71.5 31t-70.5 -32t-25.5 -77v-381z" />
<glyph unicode="&#xff;" horiz-adv-x="673" d="M-6 975h207l135 -604l133 604h207l-281 -1139q-29 -109 -98 -167t-182 -58h-45v184h41q39 0 70.5 20.5t39.5 57.5l43 166zM68 1165v228h170v-228h-170zM436 1165v228h170v-228h-170z" />
<glyph unicode="&#x152;" horiz-adv-x="1210" d="M92 338v696q0 61 13.5 108.5t53.5 104t111.5 94t149.5 37.5q84 0 160 -41v29h557v-180h-387v-404h340v-184h-340v-401h387v-197h-557v29q-33 -16 -75 -28.5t-79 -12.5q-96 0 -177 49t-113 111.5t-38 100.5t-6 89zM287 338q0 -20 3 -45t32.5 -67t101.5 -42q37 0 66.5 17.5 t43 40t17.5 43t4 53.5v696q0 41 -3.5 57t-21.5 39q-41 55 -106 56q-35 0 -68.5 -19.5t-47 -43t-17.5 -48t-4 -41.5v-696z" />
<glyph unicode="&#x153;" horiz-adv-x="1103" d="M70 299v389q0 111 53 175.5t111.5 94t125.5 29.5q113 0 195 -82q41 39 89 60.5t101 21.5q125 0 208 -87t83 -212v-270h-389v-146q0 -29 31 -57.5t63 -28.5q90 0 101 97h194v-21q0 -47 -19.5 -91t-81 -113.5t-192.5 -69.5q-104 0 -190 86q-43 -41 -88 -63.5t-98 -22.5 q-88 0 -159 43t-97.5 98t-33.5 90t-7 80zM264 299q0 -49 27.5 -81t75.5 -32q92 0 92 113v389q0 45 -25.5 77t-68.5 32q-45 0 -73 -32t-28 -77v-389zM647 578h195v96q0 53 -23 87t-76 34q-47 0 -71.5 -33t-24.5 -88v-96z" />
<glyph unicode="&#x178;" horiz-adv-x="712" d="M-8 1366h205l157 -535l162 535h205l-270 -778v-588h-195v588zM82 1450v228h170v-228h-170zM450 1450v228h170v-228h-170z" />
<glyph unicode="&#x2c6;" d="M219 1128l213 279h164l211 -279h-150l-147 195l-143 -195h-148z" />
<glyph unicode="&#x2000;" horiz-adv-x="934" />
<glyph unicode="&#x2001;" horiz-adv-x="1868" />
<glyph unicode="&#x2002;" horiz-adv-x="934" />
<glyph unicode="&#x2003;" horiz-adv-x="1868" />
<glyph unicode="&#x2004;" horiz-adv-x="622" />
<glyph unicode="&#x2005;" horiz-adv-x="467" />
<glyph unicode="&#x2006;" horiz-adv-x="311" />
<glyph unicode="&#x2007;" horiz-adv-x="311" />
<glyph unicode="&#x2008;" horiz-adv-x="233" />
<glyph unicode="&#x2009;" horiz-adv-x="373" />
<glyph unicode="&#x200a;" horiz-adv-x="103" />
<glyph unicode="&#x2010;" horiz-adv-x="792" d="M104 440v195h584v-195h-584z" />
<glyph unicode="&#x2011;" horiz-adv-x="792" d="M104 440v195h584v-195h-584z" />
<glyph unicode="&#x2012;" horiz-adv-x="792" d="M104 440v195h584v-195h-584z" />
<glyph unicode="&#x2013;" horiz-adv-x="1071" d="M102 422v168h865v-168h-865z" />
<glyph unicode="&#x2014;" horiz-adv-x="1441" d="M-20 422v168h1482v-168h-1482z" />
<glyph unicode="&#x2018;" horiz-adv-x="391" d="M100 1135v190l146 74v-264h-146z" />
<glyph unicode="&#x2019;" horiz-adv-x="346" d="M102 1100v264h146v-190z" />
<glyph unicode="&#x201a;" horiz-adv-x="391" d="M100 -74v264h146v-190z" />
<glyph unicode="&#x201c;" horiz-adv-x="743" d="M102 1135v190l146 74v-264h-146zM346 1135v190l146 74v-264h-146z" />
<glyph unicode="&#x201d;" horiz-adv-x="589" d="M102 1100v264h146v-190zM346 1100v264h146v-190z" />
<glyph unicode="&#x201e;" horiz-adv-x="585" d="M100 -74v264h146v-190zM344 -74v264h145v-190z" />
<glyph unicode="&#x2022;" horiz-adv-x="747" d="M92 696q0 117 82 201t201 84q117 0 198.5 -84t81.5 -201q0 -115 -81.5 -200.5t-198.5 -85.5t-200 85t-83 201z" />
<glyph unicode="&#x2026;" horiz-adv-x="1175" d="M98 0v195h195v-195h-195zM489 0v195h197v-195h-197zM883 0v195h194v-195h-194z" />
<glyph unicode="&#x202f;" horiz-adv-x="373" />
<glyph unicode="&#x2039;" horiz-adv-x="485" d="M109 416v174l243 254v-164l-153 -176l153 -170v-168z" />
<glyph unicode="&#x203a;" horiz-adv-x="485" d="M133 166v162l154 180l-154 170v168l246 -250v-176z" />
<glyph unicode="&#x205f;" horiz-adv-x="467" />
<glyph unicode="&#x2122;" horiz-adv-x="1204" d="M33 1245v121h424v-121h-144v-698h-139v698h-141zM567 547v819h127l154 -412l151 412h127v-819h-135v450l-108 -303h-74l-104 301v-448h-138z" />
<glyph unicode="&#x25fc;" horiz-adv-x="972" d="M0 0v973h973v-973h-973z" />
</font>
</defs>
</svg>
